# xmcd
#
# Track frame offsets: 
#        150
#        14109
#        30704
#        49022
#        67622
#        86202
#        106152
#
# Disc length: 1608 seconds
#
# Revision: 0
# Processed by: cddbd v1.5.2PL0 Copyright (c) Steve Scherf et al.
# Submitted via: ExactAudioCopyFreeDBPlugin 1.0
#
DISCID=52064607
DTITLE=Paul Cauthen - Have Mercy
DYEAR=2018
DGENRE=Indie
TTITLE0=Everybody Walkin' This Land
TTITLE1=Resignation
TTITLE2=Have Mercy
TTITLE3=Lil Son
TTITLE4=My Cadillac
TTITLE5=Tumbleweed
TTITLE6=In Love With A Fool
EXTD=
EXTT0=
EXTT1=
EXTT2=
EXTT3=
EXTT4=
EXTT5=
EXTT6=
PLAYORDER=
